<svg xmlns="http://www.w3.org/2000/svg" xmlns:xlink="http://www.w3.org/1999/xlink" viewBox="0 0 2000 1829.42"><defs><style>.cls-1{isolation:isolate;}.cls-2{fill:url(#linear-gradient);}.cls-3{fill:url(#linear-gradient-2);}.cls-11,.cls-31,.cls-39,.cls-4,.cls-42,.cls-5,.cls-54,.cls-55,.cls-56,.cls-6,.cls-7,.cls-8,.cls-9{opacity:0.8;}.cls-11,.cls-15,.cls-17,.cls-19,.cls-22,.cls-23,.cls-26,.cls-31,.cls-39,.cls-4,.cls-42,.cls-5,.cls-54,.cls-55,.cls-56,.cls-6,.cls-7,.cls-8,.cls-9{mix-blend-mode:multiply;}.cls-4{fill:url(#linear-gradient-3);}.cls-5{fill:url(#linear-gradient-4);}.cls-6{fill:url(#linear-gradient-5);}.cls-7{fill:url(#linear-gradient-6);}.cls-8{fill:url(#linear-gradient-7);}.cls-9{fill:url(#linear-gradient-8);}.cls-10{fill:#cbdfef;}.cls-11{fill:url(#linear-gradient-9);}.cls-12,.cls-20,.cls-30{fill:#fff;}.cls-13{fill:url(#linear-gradient-10);}.cls-14{fill:#809297;}.cls-15{fill:url(#linear-gradient-11);}.cls-16{fill:#8a9ea2;}.cls-17{fill:url(#linear-gradient-12);}.cls-18{fill:#92a7ac;}.cls-19{fill:url(#linear-gradient-13);}.cls-20{opacity:0.1;}.cls-21{fill:#fdc870;}.cls-22{fill:url(#linear-gradient-14);}.cls-23{fill:url(#linear-gradient-15);}.cls-24,.cls-25{mix-blend-mode:overlay;}.cls-24{fill:url(#linear-gradient-16);}.cls-25{fill:url(#linear-gradient-17);}.cls-26{fill:url(#linear-gradient-18);}.cls-27,.cls-28,.cls-36,.cls-37,.cls-45,.cls-46,.cls-59{opacity:0.7;}.cls-27{fill:url(#linear-gradient-19);}.cls-28{fill:url(#linear-gradient-20);}.cls-29{fill:url(#linear-gradient-21);}.cls-30{mix-blend-mode:soft-light;}.cls-31{fill:url(#linear-gradient-22);}.cls-32{fill:url(#linear-gradient-23);}.cls-33{fill:#ffb300;}.cls-34{fill:#ffa000;}.cls-35{fill:#ffca28;}.cls-36{fill:url(#linear-gradient-24);}.cls-37{fill:url(#linear-gradient-25);}.cls-38{fill:url(#linear-gradient-26);}.cls-39{fill:url(#linear-gradient-27);}.cls-40{fill:url(#linear-gradient-28);}.cls-41{fill:#d32f2f;}.cls-42{fill:url(#linear-gradient-29);}.cls-43{fill:#ef5350;}.cls-44,.cls-53,.cls-61,.cls-63{fill:none;stroke:#fff;}.cls-44,.cls-53{stroke-miterlimit:10;}.cls-44,.cls-61{stroke-width:6.11px;}.cls-45{fill:url(#linear-gradient-30);}.cls-46{fill:url(#linear-gradient-31);}.cls-47{fill:url(#linear-gradient-32);}.cls-48{fill:#25284c;}.cls-49{fill:#111638;}.cls-50{fill:#f5f5f5;}.cls-51{fill:#7b92b9;}.cls-52{fill:#6a7ea2;}.cls-53{stroke-width:4.42px;}.cls-54{fill:url(#linear-gradient-33);}.cls-55{fill:url(#linear-gradient-34);}.cls-56{fill:url(#linear-gradient-35);}.cls-57{fill:url(#linear-gradient-36);}.cls-58{fill:url(#linear-gradient-37);}.cls-59{fill:url(#linear-gradient-38);}.cls-60{fill:url(#linear-gradient-39);}.cls-61,.cls-63{stroke-linecap:round;stroke-linejoin:round;}.cls-62{fill:#ffee58;}.cls-63{stroke-width:3.06px;}.cls-64{fill:url(#linear-gradient-40);}</style><linearGradient id="linear-gradient" x1="1000" y1="1905.28" x2="1000" y2="86.07" gradientUnits="userSpaceOnUse"><stop offset="0" stop-color="#ac24b9"/><stop offset="1" stop-color="#2e2142"/></linearGradient><linearGradient id="linear-gradient-2" x1="100.94" y1="1887.28" x2="1.66" y2="1261.8" xlink:href="#linear-gradient"/><linearGradient id="linear-gradient-3" x1="474.98" y1="1790.64" x2="493.92" y2="1530.69" gradientUnits="userSpaceOnUse"><stop offset="0" stop-color="#fff" stop-opacity="0"/><stop offset="1" stop-color="#662d8d"/></linearGradient><linearGradient id="linear-gradient-4" x1="1084.74" y1="1796.85" x2="1103.68" y2="1536.9" xlink:href="#linear-gradient-3"/><linearGradient id="linear-gradient-5" x1="1132.11" y1="1515.43" x2="285.14" y2="1505.1" xlink:href="#linear-gradient-3"/><linearGradient id="linear-gradient-6" x1="886.85" y1="667.07" x2="428.94" y2="1180.07" xlink:href="#linear-gradient-3"/><linearGradient id="linear-gradient-7" x1="2289.47" y1="1546.99" x2="1316.64" y2="1546.99" xlink:href="#linear-gradient-3"/><linearGradient id="linear-gradient-8" x1="2147.16" y1="1255.38" x2="1110.45" y2="1255.38" xlink:href="#linear-gradient-3"/><linearGradient id="linear-gradient-9" x1="951.11" y1="1335.62" x2="1417.26" y2="1335.62" xlink:href="#linear-gradient-3"/><linearGradient id="linear-gradient-10" x1="997.37" y1="675.27" x2="997.37" y2="1289.09" gradientUnits="userSpaceOnUse"><stop offset="0" stop-color="#00d4c8"/><stop offset="1" stop-color="#00d2c7" stop-opacity="0"/></linearGradient><linearGradient id="linear-gradient-11" x1="917.22" y1="1016.55" x2="1072.99" y2="1016.55" gradientUnits="userSpaceOnUse"><stop offset="0" stop-color="#fff" stop-opacity="0"/><stop offset="1" stop-color="#92a7ac"/></linearGradient><linearGradient id="linear-gradient-12" x1="953.93" y1="945.18" x2="1101.22" y2="945.18" xlink:href="#linear-gradient-11"/><linearGradient id="linear-gradient-13" x1="930.65" y1="901.03" x2="1107.87" y2="901.03" gradientTransform="translate(1865.93 -127.68) rotate(88.07)" xlink:href="#linear-gradient-11"/><linearGradient id="linear-gradient-14" x1="943.8" y1="572.96" x2="1144.36" y2="810.28" gradientUnits="userSpaceOnUse"><stop offset="0" stop-color="#fff" stop-opacity="0"/><stop offset="1" stop-color="#fdc870"/></linearGradient><linearGradient id="linear-gradient-15" x1="1067.85" y1="570.16" x2="1067.85" y2="685.88" gradientTransform="translate(-89.69 2.27) rotate(-1.56)" xlink:href="#linear-gradient-14"/><linearGradient id="linear-gradient-16" x1="1144.62" y1="664.43" x2="967.41" y2="366.72" gradientTransform="translate(-75.48 -27.06)" gradientUnits="userSpaceOnUse"><stop offset="0" stop-color="#fff" stop-opacity="0"/><stop offset="1" stop-color="#fff"/></linearGradient><linearGradient id="linear-gradient-17" x1="875.01" y1="721.62" x2="683.5" y2="628.87" gradientTransform="matrix(1, 0, 0, 1, 0, 0)" xlink:href="#linear-gradient-16"/><linearGradient id="linear-gradient-18" x1="969.35" y1="922.93" x2="1132.54" y2="835.05" xlink:href="#linear-gradient-14"/><linearGradient id="linear-gradient-19" x1="494.34" y1="770.24" x2="1044.06" y2="770.24" xlink:href="#linear-gradient-10"/><linearGradient id="linear-gradient-20" x1="1434.27" y1="770.24" x2="1048.42" y2="770.24" xlink:href="#linear-gradient-10"/><linearGradient id="linear-gradient-21" x1="997.37" y1="-108.58" x2="997.37" y2="505.24" xlink:href="#linear-gradient-10"/><linearGradient id="linear-gradient-22" x1="1546.53" y1="1587.7" x2="1861.71" y2="1587.7" xlink:href="#linear-gradient-3"/><linearGradient id="linear-gradient-23" x1="1577.8" y1="1105.66" x2="1577.8" y2="1520.68" xlink:href="#linear-gradient-10"/><linearGradient id="linear-gradient-24" x1="1237.69" y1="1248.21" x2="1609.37" y2="1248.21" xlink:href="#linear-gradient-10"/><linearGradient id="linear-gradient-25" x1="1873.21" y1="1248.21" x2="1612.32" y2="1248.21" xlink:href="#linear-gradient-10"/><linearGradient id="linear-gradient-26" x1="1577.8" y1="661.23" x2="1577.8" y2="1076.25" xlink:href="#linear-gradient-10"/><linearGradient id="linear-gradient-27" x1="385.06" y1="1001.59" x2="700.25" y2="1001.59" xlink:href="#linear-gradient-3"/><linearGradient id="linear-gradient-28" x1="416.34" y1="519.54" x2="416.34" y2="934.56" xlink:href="#linear-gradient-10"/><linearGradient id="linear-gradient-29" x1="401.89" y1="513.98" x2="524.69" y2="750.4" xlink:href="#linear-gradient-3"/><linearGradient id="linear-gradient-30" x1="76.22" y1="662.09" x2="447.91" y2="662.09" xlink:href="#linear-gradient-10"/><linearGradient id="linear-gradient-31" x1="711.75" y1="662.09" x2="450.85" y2="662.09" xlink:href="#linear-gradient-10"/><linearGradient id="linear-gradient-32" x1="416.34" y1="75.11" x2="416.34" y2="490.13" xlink:href="#linear-gradient-10"/><linearGradient id="linear-gradient-33" x1="405.92" y1="1084.54" x2="628.56" y2="1529.82" xlink:href="#linear-gradient-3"/><linearGradient id="linear-gradient-34" x1="557.5" y1="1459.25" x2="1162.53" y2="1459.25" xlink:href="#linear-gradient-3"/><linearGradient id="linear-gradient-35" x1="557.5" y1="1340.99" x2="1162.53" y2="1340.99" xlink:href="#linear-gradient-3"/><linearGradient id="linear-gradient-36" x1="629.3" y1="1218.72" x2="613.74" y2="1372.11" xlink:href="#linear-gradient-14"/><linearGradient id="linear-gradient-37" x1="576.83" y1="1312.76" x2="537.74" y2="1386.89" gradientUnits="userSpaceOnUse"><stop offset="0" stop-color="#ba68c8" stop-opacity="0"/><stop offset="1" stop-color="#ba68c8"/></linearGradient><linearGradient id="linear-gradient-38" x1="668.61" y1="1370.43" x2="632.23" y2="1439.41" xlink:href="#linear-gradient-10"/><linearGradient id="linear-gradient-39" x1="726" y1="1369.02" x2="690.82" y2="1483.34" gradientUnits="userSpaceOnUse"><stop offset="0" stop-color="#ef5350"/><stop offset="1" stop-color="#ef5350" stop-opacity="0"/></linearGradient><linearGradient id="linear-gradient-40" x1="1172.34" y1="3876.89" x2="1172.34" y2="3343.84" gradientTransform="translate(2683.96 4402.83) rotate(-177.48)" xlink:href="#linear-gradient"/></defs><title>sra</title><g class="cls-1"><g id="Capa_1" data-name="Capa 1"><path class="cls-2" d="M1987.48,1457.84q-4.32,24.95-10,49.6-4.41,18.78-9.52,37.32c-18.93,68.17-45.84,136.29-83.05,196.52-38,61.65-86.74,115.19-148.8,152.45-33.38,20.1-69.17,34.62-106.37,45.49H362.62c-122.53-66.53-230.08-183.6-206.69-320.71,20.33-119.3,39.43-238.3-2.41-348.56-30.44-80-90.33-145.74-124.06-224.44C-54,850.28,51,673.5,206.71,565.08c5.64-3.94,11.34-7.76,17.1-11.52l4.11-2.65c6.35-4,12.64-8.29,18.81-12.57,13.4-9.35,26.33-19.16,39-29.51h.06c9.52-7.75,18.87-15.69,28.09-23.92,2.18-1.88,4.41-3.82,6.53-5.81q19-17.12,37.43-35.15c6.47-6.29,12.87-12.69,19.28-19.1,49.84-50,97.91-102.37,150.57-148,50.18-43.43,104.55-80.75,168.6-104A602.62,602.62,0,0,1,819,142.41c164.27-23.1,335.17,20.68,468.51,122.82q9.79,7.5,19.52,15.46c68.93,56.36,132.34,128.23,160.38,211.22,35.32,104.43,87.39,205.22,182.36,267.34,78.34,51.19,152.5,85.16,214.92,159.56a547.69,547.69,0,0,1,58.41,84.51,570.93,570.93,0,0,1,34.8,74.16,611.85,611.85,0,0,1,29.56,104.2C2004.87,1271.72,2003.46,1366,1987.48,1457.84Z" transform="translate(0 -109.8)"/><path class="cls-3" d="M15.33,1669.54c-2,34.64.12,71,17.48,101.08,14.57,25.2,48.71,44.52,72.32,27.49,17.92-12.94,19.21-39.49,13.22-60.77s-17.42-41.24-19-63.27c-2.56-34.69,38.47-123.57-23.16-127.57C20.6,1542.89,17.27,1635.3,15.33,1669.54Z" transform="translate(0 -109.8)"/><ellipse class="cls-4" cx="482.86" cy="1682.45" rx="119.52" ry="47.08"/><ellipse class="cls-5" cx="1092.62" cy="1688.66" rx="119.52" ry="47.08"/><polygon class="cls-6" points="403.54 1475.15 511.62 1475.15 751.83 1587 720.43 1657.83 832.93 1657.83 1077.31 1506.26 778.13 1401.6 600.33 1361.53 403.54 1475.15"/><rect class="cls-7" x="425.78" y="657.54" width="592.32" height="388.56"/><path class="cls-8" d="M1987.48,1352.7v105.14q-4.32,24.95-10,49.6-4.41,18.78-9.52,37.32c-18.93,68.17-45.84,136.29-83.05,196.52H1575.27V1352.7Z" transform="translate(0 -109.8)"/><path class="cls-9" d="M1987.48,1181.68v276.16q-4.32,24.95-10,49.6h-863.8V1003.32h809.49a570.93,570.93,0,0,1,34.8,74.16A611.85,611.85,0,0,1,1987.48,1181.68Z" transform="translate(0 -109.8)"/><path class="cls-10" d="M1307.42,1384.82V1107.41H687.31v277.41h0c0,45.82,30.28,91.63,90.82,126.58,121.08,69.91,317.39,69.91,438.48,0C1277.15,1476.45,1307.42,1430.63,1307.42,1384.82Z" transform="translate(0 -109.8)"/><path class="cls-11" d="M1307.42,1384.82V1107.41H687.31v277.41h0c0,45.82,30.28,91.63,90.82,126.58,121.08,69.91,317.39,69.91,438.48,0C1277.15,1476.45,1307.42,1430.63,1307.42,1384.82Z" transform="translate(0 -109.8)"/><ellipse class="cls-12" cx="997.37" cy="997.62" rx="310.05" ry="179.01"/><ellipse class="cls-13" cx="997.37" cy="962.86" rx="310.05" ry="179.01"/><path class="cls-14" d="M1073,1019.16c-1.09,32.34-36.83,57.38-79.83,55.93s-77-28.83-75.88-61.16,36.82-57.37,79.82-55.93S1074.05,986.83,1073,1019.16Z" transform="translate(0 -109.8)"/><path class="cls-15" d="M1073,1019.16c-1.09,32.34-36.83,57.38-79.83,55.93s-77-28.83-75.88-61.16,36.82-57.37,79.82-55.93S1074.05,986.83,1073,1019.16Z" transform="translate(0 -109.8)"/><path class="cls-16" d="M1124.58,949.45c-1.33,39.42-59.3,69.46-129.48,67.1s-126-36.23-124.67-75.64,59.29-69.46,129.47-67.1S1125.9,910,1124.58,949.45Z" transform="translate(0 -109.8)"/><path class="cls-17" d="M1124.58,949.45c-1.33,39.42-59.3,69.46-129.48,67.1s-126-36.23-124.67-75.64,59.29-69.46,129.47-67.1S1125.9,910,1124.58,949.45Z" transform="translate(0 -109.8)"/><ellipse class="cls-18" cx="998.99" cy="901.03" rx="71.41" ry="127.14" transform="matrix(0.03, -1, 1, 0.03, 64.89, 1759.37)"/><ellipse class="cls-19" cx="998.99" cy="901.03" rx="71.41" ry="127.14" transform="matrix(0.03, -1, 1, 0.03, 64.89, 1759.37)"/><path class="cls-20" d="M891.06,917.26c-3.5,1.75-8.56-1.26-11.29-6.73s-2.09-11.32,1.41-13.07,8.57,1.26,11.29,6.73S894.57,915.51,891.06,917.26Z" transform="translate(0 -109.8)"/><path class="cls-20" d="M897.92,927.85c-2.32,1.16-5,.46-6-1.55s.06-4.59,2.38-5.74,5-.46,6,1.55S900.24,926.69,897.92,927.85Z" transform="translate(0 -109.8)"/><path class="cls-20" d="M891.47,964.79c-3.51,1.75-8.56-1.27-11.29-6.74s-2.09-11.32,1.41-13.06,8.56,1.26,11.29,6.73S895,963,891.47,964.79Z" transform="translate(0 -109.8)"/><path class="cls-20" d="M898.33,975.38c-2.32,1.15-5,.46-6-1.55s.06-4.59,2.38-5.75,5-.46,6,1.56S900.64,974.22,898.33,975.38Z" transform="translate(0 -109.8)"/><path class="cls-21" d="M1228.63,603.11C1229.44,475,1126.43,389.8,998.7,389s-231.8,83.07-232.61,211.2c-.8,125.51,63.35,144.5,96.08,209.06,10.23,20.2,6.49,38.13,6.49,38.13-.31,48.75,52.72,76.32,126.66,76.79s127.31-26.43,127.62-75.18c0,0-3.52-18,7-38C1163.46,746.8,1227.83,728.63,1228.63,603.11Z" transform="translate(0 -109.8)"/><path class="cls-22" d="M1228.65,603.11c-.05,7.84-.34,15.24-.86,22.31-.39,5.35-1,10.56-1.63,15.53-3.34,25.46-9.93,45.47-18.29,62.34a9.11,9.11,0,0,0-.48,1c-21.21,41.85-53.6,64-75.05,102.28-.86,1.43-1.67,2.91-2.43,4.39-10.51,20.06-7,38-7,38a44.54,44.54,0,0,1-.33,5.68,22.74,22.74,0,0,1-.29,2.53,6.38,6.38,0,0,1-.19,1.29,20.19,20.19,0,0,1-.43,2.39,21.75,21.75,0,0,1-.53,2.44c-.24,1.09-.57,2.24-.9,3.29a.67.67,0,0,1-.1.29,52,52,0,0,1-3.63,8.79,2.42,2.42,0,0,1-.24.52c-12.61,24.08-42.37,39.61-82,45.39a253.15,253.15,0,0,1-38.93,2.58c-74-.48-127-28-126.69-76.82,0,0,3.78-17.91-6.5-38.12-32.72-64.54-96.87-83.55-96.06-209C766.9,472.08,871,388.2,998.68,389S1229.46,475,1228.65,603.11Z" transform="translate(0 -109.8)"/><path class="cls-23" d="M1070.56,714c-4.06-24.33-31.39-56.54-51.42-24.86-13.88,21.92-12.41,52.6-12.41,78.22V769c-2.29.17-4.58.29-6.81.35a5.74,5.74,0,0,0-1.82.29,8.15,8.15,0,0,0-1.83-.35c-2.23-.06-4.46-.18-6.76-.41v-1.47c.36-22.16.42-44.84-6.28-65.94-10.52-33.32-41.32-31.85-53.48-.53-11.58,29.86-.77,52.84,19.68,66.47a83.59,83.59,0,0,0,27.92,11.58c0,.58-.06,1.17-.06,1.7-.12,16.52-.18,33-.29,49.54-.12,14.7-.18,29.39-.3,44.08-.06,6.64-.06,13.22-.11,19.81q-.09,14.71-.18,29.32c3.94.3,8,.53,12.05.65.06-10.11.11-20.16.17-30.27.06-6.7.12-13.34.18-20,.06-14.69.18-29.44.29-44.13.06-16.22.18-32.5.3-48.72,2.23.23,4.52.41,6.81.47a6.13,6.13,0,0,0,1.83-.24,4.18,4.18,0,0,0,1.76.24c2.29,0,4.58-.18,6.88-.36-.12,16.28-.24,32.62-.3,48.9-.12,14.75-.23,29.44-.29,44.19-.06,6.59-.12,13.11-.12,19.69-.06,1.53-.06,3.12-.06,4.64-.06,8.53-.12,17-.17,25.57V924h.23a.49.49,0,0,0,.29-.06c.06.06.12,0,.18,0h.82l3.94-.18,3.41-.17c1.12-.06,2.17-.18,3.23-.24.06-9.75.12-19.57.18-29.32,0-2.88.06-5.76.06-8.64,0-3.41,0-6.88,0-10.29.12-14.75.18-29.5.3-44.25.06-16.63.18-33.32.29-49.95v-1.59C1050.75,773.06,1076.85,751.84,1070.56,714ZM937.39,724.69c-.12-13.34,13.51-53.3,30.2-29.79,12.87,18.16,11.11,47.72,10.11,72.17C956.13,762.54,937.62,750.32,937.39,724.69Zm81.16,42.67c-.71-24.51-2.12-54.07,11-72.05,17-23.33,30.15,16.81,29.85,30.15C1058.8,751.08,1040.11,763.07,1018.55,767.36Z" transform="translate(0 -109.8)"/><ellipse class="cls-24" cx="992.34" cy="508.35" rx="162.06" ry="93.56" transform="translate(-13.5 -82.54) rotate(-1.56)"/><path class="cls-25" d="M798.15,667.44c10.81,31.33,31,60.09,52.34,84.28,22.33,25.31,49.16,50.42,53.79,83.85.64,4.66.87,9.54,3.15,13.66s7.45,7.14,11.72,5.17c2.2-1,3.69-3.08,5-5.14a68.5,68.5,0,0,0,8.75-49.82c-5.77-27.22-26.81-47-44.4-67.1-17.09-19.55-31.66-44.63-37.12-70.26-3.43-16.1-4.48-32.64-8-48.73-1.66-7.68-3.95-15.42-8.59-21.77s-12-11.12-19.88-10.86c-8.36.26-15.77,6.21-19.75,13.56s-5,15.94-5.18,24.3A140.82,140.82,0,0,0,798.15,667.44Z" transform="translate(0 -109.8)"/><path class="cls-26" d="M1228.65,603.11c0,7.79-.29,15.19-.86,22.31-.39,5.35-1,10.56-1.63,15.53a210.63,210.63,0,0,1-18.29,62.34,9.11,9.11,0,0,0-.48,1c-21.21,41.85-53.6,64-75.05,102.28-.86,1.43-1.67,2.91-2.43,4.39-10.51,20.06-7,38-7,38a44.54,44.54,0,0,1-.33,5.68,22.74,22.74,0,0,1-.29,2.53,6.38,6.38,0,0,1-.19,1.29,20.19,20.19,0,0,1-.43,2.39,21.75,21.75,0,0,1-.53,2.44c-.24,1.09-.57,2.24-.9,3.29a.67.67,0,0,1-.1.29,52,52,0,0,1-3.63,8.79,2.42,2.42,0,0,1-.24.52c6.59,9,10.13,18.87,9.79,29.1a44.18,44.18,0,0,1-7,21.87,43.56,43.56,0,0,1,5.44,22.27c-.76,23.55-21.73,43.7-53.45,55.65a44.45,44.45,0,0,1,1.86,14c-1.09,32.34-36.83,57.37-79.82,55.94-2.44-.09-4.83-.24-7.21-.53,9.31-11.22,19.87-22,25.22-32.57,18.58-36.88,20.92-79.88,23.12-120.38,0-.77.1-1.53.14-2.3q2.8-51.22,5.59-102.37c.19-3.39.43-6.88,1.72-10,4-9.32,15.85-11.43,25.75-13.76C1175.46,767.8,1219.4,687.65,1228.65,603.11Z" transform="translate(0 -109.8)"/><path class="cls-21" d="M1219,357.47a20.66,20.66,0,1,1-20.66-20.65A20.66,20.66,0,0,1,1219,357.47Z" transform="translate(0 -109.8)"/><path class="cls-21" d="M1219,928.41a20.66,20.66,0,1,1-20.66-20.66A20.66,20.66,0,0,1,1219,928.41Z" transform="translate(0 -109.8)"/><circle class="cls-21" cx="824.13" cy="729.33" r="20.66"/><circle class="cls-21" cx="1241.67" cy="186.63" r="13.04"/><circle class="cls-21" cx="1219.02" cy="701.8" r="13.04"/><circle class="cls-21" cx="857.83" cy="179.01" r="13.04"/><circle class="cls-21" cx="1254.71" cy="862.73" r="13.04"/><circle class="cls-21" cx="789.97" cy="929.58" r="13.04"/><path class="cls-27" d="M1307.42,1072.65V288.81c0,45.81-30.27,91.62-90.81,126.58-121.09,69.9-317.4,69.9-438.48,0-60.54-35-90.81-80.77-90.82-126.58v783.85h0c0,45.81,30.28,91.62,90.82,126.58,121.08,69.9,317.39,69.9,438.48,0C1277.15,1164.28,1307.42,1118.47,1307.42,1072.65Z" transform="translate(0 -109.8)"/><path class="cls-28" d="M1307.42,1072.65V288.81c0,45.81-30.27,91.62-90.81,126.58-121.09,69.9-317.4,69.9-438.48,0-60.54-35-90.81-80.77-90.82-126.58v783.85h0c0,45.81,30.28,91.62,90.82,126.58,121.08,69.9,317.39,69.9,438.48,0C1277.15,1164.28,1307.42,1118.47,1307.42,1072.65Z" transform="translate(0 -109.8)"/><ellipse class="cls-29" cx="997.37" cy="179.01" rx="310.05" ry="179.01"/><path class="cls-30" d="M733.74,789.21h0a42.27,42.27,0,0,1-21.13-36.6V467.55a8.14,8.14,0,0,1,12.21-7.05h0a43.36,43.36,0,0,1,21.68,37.55v283.8A8.5,8.5,0,0,1,733.74,789.21Z" transform="translate(0 -109.8)"/><path class="cls-30" d="M733.74,917.46h0a42.28,42.28,0,0,1-21.13-36.61V840.36a8.14,8.14,0,0,1,12.21-7.05h0a43.36,43.36,0,0,1,21.68,37.55v39.23A8.51,8.51,0,0,1,733.74,917.46Z" transform="translate(0 -109.8)"/><path class="cls-10" d="M1787.44,1621V1433.4H1368.16V1621h0c0,31,20.47,62,61.41,85.59,81.87,47.26,214.6,47.26,296.47,0C1767,1682.92,1787.44,1652,1787.44,1621Z" transform="translate(0 -109.8)"/><path class="cls-31" d="M1787.44,1621V1433.4H1368.16V1621h0c0,31,20.47,62,61.41,85.59,81.87,47.26,214.6,47.26,296.47,0C1767,1682.92,1787.44,1652,1787.44,1621Z" transform="translate(0 -109.8)"/><ellipse class="cls-12" cx="1577.8" cy="1323.61" rx="209.64" ry="121.03"/><ellipse class="cls-32" cx="1577.8" cy="1300.1" rx="209.64" ry="121.03"/><path class="cls-21" d="M1728.26,1072.66a14,14,0,1,1-14-14A14,14,0,0,1,1728.26,1072.66Z" transform="translate(0 -109.8)"/><circle class="cls-21" cx="1700.33" cy="1263.63" r="13.97"/><path class="cls-21" d="M1474.64,1266a14,14,0,1,1-14-14A14,14,0,0,1,1474.64,1266Z" transform="translate(0 -109.8)"/><path class="cls-21" d="M1695.17,1013.59a8.82,8.82,0,1,1-8.81-8.82A8.8,8.8,0,0,1,1695.17,1013.59Z" transform="translate(0 -109.8)"/><path class="cls-21" d="M1655.87,1409.91a8.82,8.82,0,1,1-8.81-8.82A8.81,8.81,0,0,1,1655.87,1409.91Z" transform="translate(0 -109.8)"/><path class="cls-21" d="M1467.92,1001a8.82,8.82,0,1,1-8.81-8.82A8.8,8.8,0,0,1,1467.92,1001Z" transform="translate(0 -109.8)"/><path class="cls-21" d="M1760.61,1259.68a8.82,8.82,0,1,1-8.81-8.81A8.81,8.81,0,0,1,1760.61,1259.68Z" transform="translate(0 -109.8)"/><path class="cls-21" d="M1446.39,1387.4a8.82,8.82,0,1,1-8.82-8.81A8.82,8.82,0,0,1,1446.39,1387.4Z" transform="translate(0 -109.8)"/><path class="cls-33" d="M1709.31,1225.86a17.06,17.06,0,0,1-.08,2,127.33,127.33,0,0,1-2.18,23,89.67,89.67,0,0,1-3.16,12.14c-5.34,16.27-14.49,28.5-26.39,36l.08.08-1.06.64c-.64.33-1.29.73-2,1.14l-32.38,18.78-7.29-12.55c-12.63-1.78-26.31-6.48-40.72-14.81-63.63-36.68-115.12-126-115.12-199.48a130.52,130.52,0,0,1,1.62-20.89c.65-4.13,1.54-8.1,2.51-11.82.89-3.08,1.86-6,2.91-8.83l-7.61-13.11,32.71-18.86c1.13-.65,2.18-1.3,3.32-1.87l1.78-1.05.08.16c13.28-6.39,29.47-7.68,47.44-3a101.39,101.39,0,0,1,11.5,3.72,129.72,129.72,0,0,1,18.86,9.07,14.28,14.28,0,0,1,1.46.89c2.83,1.62,5.66,3.48,8.5,5.43a162.38,162.38,0,0,1,16.27,12.3c2.35,2,4.78,4,7,6.24,4.7,4.28,9.23,8.9,13.69,13.76,2,2.18,4,4.53,6,6.88,4.13,4.78,8,9.71,11.82,14.81,1.7,2.43,3.48,4.86,5.1,7.37,3.56,5.1,7,10.44,10.12,15.87,1.54,2.59,3.07,5.18,4.45,7.77q4.62,8.27,8.5,16.76c1.3,2.75,2.51,5.42,3.64,8.17q3.76,8.88,6.8,17.74c1.06,2.91,2,5.82,2.84,8.74a183.44,183.44,0,0,1,4.77,18.86c.73,3.08,1.3,6.24,1.78,9.31a175.92,175.92,0,0,1,2.19,20.4C1709.23,1220.44,1709.31,1223.19,1709.31,1225.86Z" transform="translate(0 -109.8)"/><path class="cls-34" d="M1575.25,1017.31,1480.61,1072l-7.69,4.45-2.35-9,12.55-7.29,80.63-46.55A101.39,101.39,0,0,1,1575.25,1017.31Z" transform="translate(0 -109.8)"/><path class="cls-34" d="M1604.07,1032.7l-114.72,66.22-2.35-9,108.57-62.66C1598.4,1028.89,1601.23,1030.75,1604.07,1032.7Z" transform="translate(0 -109.8)"/><path class="cls-34" d="M1627.38,1051.24l-121.59,70.18-2.27-9L1620.34,1045C1622.69,1047,1625.12,1049.05,1627.38,1051.24Z" transform="translate(0 -109.8)"/><path class="cls-34" d="M1647.06,1071.88l-124.76,72-2.35-9L1641.07,1065C1643.09,1067.18,1645.11,1069.53,1647.06,1071.88Z" transform="translate(0 -109.8)"/><path class="cls-34" d="M1664,1094.06l-125.25,72.29-2.26-9,122.41-70.68C1660.58,1089.12,1662.36,1091.55,1664,1094.06Z" transform="translate(0 -109.8)"/><path class="cls-34" d="M1678.55,1117.7l-123.3,71.16-2.35-9,121.2-70C1675.64,1112.52,1677.17,1115.11,1678.55,1117.7Z" transform="translate(0 -109.8)"/><path class="cls-34" d="M1690.69,1142.63l-119,68.74-2.35-9,117.71-67.92C1688.35,1137.21,1689.56,1139.88,1690.69,1142.63Z" transform="translate(0 -109.8)"/><path class="cls-34" d="M1700.33,1169.11l-112.21,64.76-2.27-9,111.64-64.52C1698.55,1163.28,1699.44,1166.19,1700.33,1169.11Z" transform="translate(0 -109.8)"/><path class="cls-34" d="M1706.88,1197.28l-102.24,59.1-2.35-9L1705.1,1188C1705.83,1191.05,1706.4,1194.21,1706.88,1197.28Z" transform="translate(0 -109.8)"/><path class="cls-34" d="M1709.31,1225.86a17.06,17.06,0,0,1-.08,2l-88.16,50.93-2.35-9,90.35-52.14C1709.23,1220.44,1709.31,1223.19,1709.31,1225.86Z" transform="translate(0 -109.8)"/><path class="cls-34" d="M1707.05,1250.88a89.67,89.67,0,0,1-3.16,12.14l-66.39,38.29-2.26-9Z" transform="translate(0 -109.8)"/><ellipse class="cls-35" cx="1561.45" cy="1178.22" rx="94.03" ry="162.87" transform="translate(-379.91 828.79) rotate(-30)"/><path class="cls-33" d="M1582.5,1086.48c-4,.06-8,.06-12,0a160.14,160.14,0,0,1,12.69,12l7.17-4.18C1587.79,1091.59,1585.14,1089,1582.5,1086.48ZM1480.59,1072c-.06.24-.06.53-.12.76l2.53.71a39.79,39.79,0,0,1,3.17-4.7Zm101.91,14.52c-4,.06-8,.06-12,0a160.14,160.14,0,0,1,12.69,12l7.17-4.18C1587.79,1091.59,1585.14,1089,1582.5,1086.48Zm-102-13.76,2.53.71a39.79,39.79,0,0,1,3.17-4.7l-5.58,3.23C1480.53,1072.2,1480.53,1072.49,1480.47,1072.72Zm174.78,154.39c-.35-3.17-.82-6.35-1.35-9.52a193.87,193.87,0,0,0-4.41-19.16c-.82-2.94-1.7-5.87-2.64-8.81-1.94-5.94-4.17-11.93-6.64-17.81-1.12-2.76-2.35-5.58-3.59-8.29-2.58-5.7-5.4-11.34-8.4-16.8-1.47-2.65-2.94-5.23-4.47-7.76-3.17-5.41-6.58-10.7-10.16-15.81-1.65-2.47-3.41-4.88-5.23-7.29-3.77-5.17-7.76-10.11-11.88-14.81-2-2.35-4.11-4.58-6.17-6.76-2.52-2.7-5.17-5.34-7.81-7.81-2.06-2-4.18-3.88-6.29-5.7-2.41-2.18-4.82-4.18-7.29-6.12A149,149,0,0,0,1551.7,1063a1.22,1.22,0,0,0-.35-.24c-3.06-1.76-6-3.35-9-4.7a83.44,83.44,0,0,0-24.33-7.64,46.17,46.17,0,0,0-7.94-.64,44.58,44.58,0,0,0-11.22,1.35,35.26,35.26,0,0,0-15.52,8.52l-1,1-.06.06a41.89,41.89,0,0,0-7.29,10.22c-.82,1.53-1.53,3.18-2.23,4.76v.06c-5.23,12.76-6.17,27.15-6.17,36,0,62.94,44.07,142,97.85,177.36,2.35,1.65,4.76,3.12,7.17,4.53,14.75,8.52,29,13,41.31,13a43.63,43.63,0,0,0,11.87-1.52,34.09,34.09,0,0,0,12.17-6.11,28.89,28.89,0,0,0,4.76-4.41,43.66,43.66,0,0,0,6.7-9.88v0c4.11-8.23,6.17-17.52,7.17-25.8a107.83,107.83,0,0,0,.76-10.76c.06-1.23.06-2.41.06-3.47A136.62,136.62,0,0,0,1655.25,1227.11Zm-8.69,37c-2.06,10.75-6.35,22.21-15.28,28.85a30.21,30.21,0,0,1-18.4,5.65,50.86,50.86,0,0,1-8.23-.71h-.06c-7.69-1.29-16-4.35-24.74-9h-.12c-1.35-.71-2.76-1.41-4.11-2.24-54.77-31.61-101-111.72-101-174.89,0-7.64.76-20,4.93-31a46,46,0,0,1,3.47-7.29,39.79,39.79,0,0,1,3.17-4.7l.06-.06a28.56,28.56,0,0,1,18-10.4h.06a42,42,0,0,1,5.7-.41c7.12,0,15.11,1.76,23.57,5.17a106,106,0,0,1,9.87,4.64c1.3.65,2.53,1.35,3.82,2.12a136,136,0,0,1,14,9.28c2.53,1.88,5.06,3.88,7.52,6a8.65,8.65,0,0,1,1.59,1.41h.06a160.14,160.14,0,0,1,12.69,12c2.18,2.17,4.23,4.4,6.23,6.69,4.18,4.65,8.17,9.58,12.05,14.7,1.76,2.35,3.53,4.82,5.23,7.29,3.59,5.11,7,10.4,10.17,15.8,1.53,2.53,3,5.12,4.46,7.76,3,5.52,5.82,11.17,8.35,16.87,1.29,2.7,2.47,5.46,3.59,8.23,2.46,5.93,4.64,11.93,6.46,17.92v.06c1,3,1.82,5.88,2.64,8.81a177.68,177.68,0,0,1,4.06,19.28c.53,3.23.94,6.47,1.23,9.64.41,4.47.65,8.87.65,13.16,0,2.35-.06,5.18-.29,8.29A103.27,103.27,0,0,1,1646.56,1264.08Zm-166-192.12c-.06.24-.06.53-.12.76l2.53.71a39.79,39.79,0,0,1,3.17-4.7Zm101.91,14.52c-4,.06-8,.06-12,0a160.14,160.14,0,0,1,12.69,12l7.17-4.18C1587.79,1091.59,1585.14,1089,1582.5,1086.48Z" transform="translate(0 -109.8)"/><path class="cls-33" d="M1593.55,1198.73a56.64,56.64,0,0,0-4.18-7.94,74.21,74.21,0,0,0-12.22-14.57c-2.35-2.18-4.76-4.29-7.23-6.17-1.82-1.47-3.64-2.82-5.47-4.12-4.4-3-8-5.64-10.34-8.46a11.13,11.13,0,0,1-2.94-7.41,4.19,4.19,0,0,1,.18-1.29c.41-1.58,1.7-2.17,3.47-2a18.52,18.52,0,0,1,7.23,2.71c.94.53,1.88,1.11,2.82,1.76a53.22,53.22,0,0,1,14.45,13.4,24.5,24.5,0,0,1,1.47,2l8.88-8,.11-.12h.06l2.18-1.94a96.24,96.24,0,0,0-11.64-14.28,85.09,85.09,0,0,0-7-6.23c-.71-.59-1.47-1.18-2.18-1.71v-11.75l-6-3.47-9-5.17-4.23-2.47v12a36,36,0,0,0-8.82-2.06h-.06c-6.34-.47-11.28,1.77-13.4,7.76a22.68,22.68,0,0,0-1.17,7.7c0,1.12.06,2.17.12,3.23a45.28,45.28,0,0,0,10,25.74l.06.06a1,1,0,0,0,.17.3,81.24,81.24,0,0,0,14.05,13.57c2.52,2,5.23,3.94,7.93,5.76a.86.86,0,0,0,.3.23c7.34,5,11.75,9.7,12.92,13.82a5.63,5.63,0,0,1,.47,2.35c0,2.88-1.58,4.17-4.23,4-2.17-.06-5-1.11-8.34-3-6.76-3.88-15.58-10.58-23.51-24l-12.46,9.28c8.35,15.17,16.34,23.87,26,30.74v12.46l19.27,11.11v-12.81c6.17,2.35,11.93,3.17,16.4,1.93,5.05-1.41,8.46-5.52,9.17-13.1v-.06a26.73,26.73,0,0,0,.17-3.17A42.76,42.76,0,0,0,1593.55,1198.73Z" transform="translate(0 -109.8)"/><path class="cls-36" d="M1787.44,1409.9V965.48c0,31-20.47,62-61.4,85.58-81.87,47.27-214.6,47.27-296.47,0-40.94-23.63-61.41-54.61-61.41-85.58v444.43h0c0,31,20.47,61.95,61.41,85.58,81.87,47.27,214.6,47.27,296.47,0C1767,1471.86,1787.44,1440.88,1787.44,1409.9Z" transform="translate(0 -109.8)"/><path class="cls-37" d="M1787.44,1409.9V965.48c0,31-20.47,62-61.4,85.58-81.87,47.27-214.6,47.27-296.47,0-40.94-23.63-61.41-54.61-61.41-85.58v444.43h0c0,31,20.47,61.95,61.41,85.58,81.87,47.27,214.6,47.27,296.47,0C1767,1471.86,1787.44,1440.88,1787.44,1409.9Z" transform="translate(0 -109.8)"/><ellipse class="cls-38" cx="1577.8" cy="855.67" rx="209.64" ry="121.03"/><path class="cls-30" d="M1399.56,1218.26h0a28.57,28.57,0,0,1-14.29-24.75V1065.1a5.5,5.5,0,0,1,8.25-4.76h0a29.31,29.31,0,0,1,14.66,25.39v127.55A5.75,5.75,0,0,1,1399.56,1218.26Z" transform="translate(0 -109.8)"/><path class="cls-30" d="M1399.56,1305h0a28.57,28.57,0,0,1-14.29-24.75v-27.38a5.5,5.5,0,0,1,8.25-4.77h0a29.33,29.33,0,0,1,14.66,25.39V1300A5.75,5.75,0,0,1,1399.56,1305Z" transform="translate(0 -109.8)"/><path class="cls-10" d="M626,1034.85V847.29H206.7v187.57h0c0,31,20.47,62,61.4,85.58,81.87,47.27,214.6,47.27,296.47,0C605.51,1096.81,626,1065.83,626,1034.85Z" transform="translate(0 -109.8)"/><path class="cls-39" d="M626,1034.85V847.29H206.7v187.57h0c0,31,20.47,62,61.4,85.58,81.87,47.27,214.6,47.27,296.47,0C605.51,1096.81,626,1065.83,626,1034.85Z" transform="translate(0 -109.8)"/><ellipse class="cls-12" cx="416.34" cy="737.49" rx="209.64" ry="121.03"/><ellipse class="cls-40" cx="416.34" cy="713.99" rx="209.64" ry="121.03"/><circle class="cls-41" cx="552.83" cy="376.74" r="13.97"/><circle class="cls-41" cx="538.86" cy="677.52" r="13.97"/><path class="cls-41" d="M313.18,679.86a14,14,0,1,1-14-14A14,14,0,0,1,313.18,679.86Z" transform="translate(0 -109.8)"/><path class="cls-41" d="M533.71,427.47a8.82,8.82,0,1,1-8.82-8.81A8.82,8.82,0,0,1,533.71,427.47Z" transform="translate(0 -109.8)"/><path class="cls-41" d="M494.41,823.79a8.82,8.82,0,1,1-8.82-8.82A8.81,8.81,0,0,1,494.41,823.79Z" transform="translate(0 -109.8)"/><path class="cls-41" d="M306.46,414.83a8.82,8.82,0,1,1-8.82-8.81A8.82,8.82,0,0,1,306.46,414.83Z" transform="translate(0 -109.8)"/><path class="cls-41" d="M599.15,673.57a8.82,8.82,0,1,1-8.82-8.82A8.82,8.82,0,0,1,599.15,673.57Z" transform="translate(0 -109.8)"/><path class="cls-41" d="M284.92,801.29a8.82,8.82,0,1,1-8.81-8.82A8.81,8.81,0,0,1,284.92,801.29Z" transform="translate(0 -109.8)"/><path class="cls-41" d="M547.85,639.74a17.23,17.23,0,0,1-.08,2,126.29,126.29,0,0,1-2.19,23,87.85,87.85,0,0,1-3.16,12.14c-5.34,16.28-14.49,28.5-26.39,36l.08.08-1.05.65c-.65.32-1.3.73-2,1.13l-32.39,18.78L473.37,721c-12.63-1.78-26.31-6.47-40.72-14.81C369,669.54,317.52,580.16,317.52,506.73a130.52,130.52,0,0,1,1.62-20.89c.65-4.13,1.54-8.09,2.51-11.82.89-3.07,1.86-6,2.92-8.82L317,452.08l32.7-18.86c1.14-.65,2.19-1.29,3.32-1.86l1.78-1.05.09.16c13.27-6.4,29.46-7.69,47.44-3a98.77,98.77,0,0,1,11.49,3.73,129.72,129.72,0,0,1,18.87,9.06,16.18,16.18,0,0,1,1.45.89c2.84,1.62,5.67,3.48,8.5,5.43a161.11,161.11,0,0,1,16.28,12.31c2.34,2,4.77,4,7,6.23,4.69,4.29,9.23,8.9,13.68,13.76,2,2.19,4,4.53,6,6.88,4.13,4.78,8,9.72,11.82,14.82,1.7,2.43,3.48,4.86,5.1,7.36,3.56,5.11,7,10.45,10.12,15.87,1.54,2.59,3.08,5.18,4.45,7.78q4.62,8.25,8.5,16.75c1.3,2.76,2.51,5.43,3.65,8.18q3.76,8.87,6.8,17.73c1.05,2.91,1.94,5.83,2.83,8.74a186.32,186.32,0,0,1,4.78,18.87c.73,3.07,1.29,6.23,1.78,9.31a178.09,178.09,0,0,1,2.18,20.4C547.77,634.32,547.85,637.07,547.85,639.74Z" transform="translate(0 -109.8)"/><path class="cls-42" d="M547.85,639.74a17.23,17.23,0,0,1-.08,2,126.29,126.29,0,0,1-2.19,23,87.85,87.85,0,0,1-3.16,12.14c-5.34,16.28-14.49,28.5-26.39,36l.08.08-1.05.65c-.65.32-1.3.73-2,1.13l-32.39,18.78L473.37,721c-12.63-1.78-26.31-6.47-40.72-14.81C369,669.54,317.52,580.16,317.52,506.73a130.52,130.52,0,0,1,1.62-20.89c.65-4.13,1.54-8.09,2.51-11.82.89-3.07,1.86-6,2.92-8.82L317,452.08l32.7-18.86c1.14-.65,2.19-1.29,3.32-1.86l1.78-1.05.09.16c13.27-6.4,29.46-7.69,47.44-3a98.77,98.77,0,0,1,11.49,3.73,129.72,129.72,0,0,1,18.87,9.06,16.18,16.18,0,0,1,1.45.89c2.84,1.62,5.67,3.48,8.5,5.43a161.11,161.11,0,0,1,16.28,12.31c2.34,2,4.77,4,7,6.23,4.69,4.29,9.23,8.9,13.68,13.76,2,2.19,4,4.53,6,6.88,4.13,4.78,8,9.72,11.82,14.82,1.7,2.43,3.48,4.86,5.1,7.36,3.56,5.11,7,10.45,10.12,15.87,1.54,2.59,3.08,5.18,4.45,7.78q4.62,8.25,8.5,16.75c1.3,2.76,2.51,5.43,3.65,8.18q3.76,8.87,6.8,17.73c1.05,2.91,1.94,5.83,2.83,8.74a186.32,186.32,0,0,1,4.78,18.87c.73,3.07,1.29,6.23,1.78,9.31a178.09,178.09,0,0,1,2.18,20.4C547.77,634.32,547.85,637.07,547.85,639.74Z" transform="translate(0 -109.8)"/><ellipse class="cls-43" cx="399.99" cy="592.1" rx="94.03" ry="162.87" transform="translate(-242.46 169.52) rotate(-30)"/><ellipse class="cls-44" cx="399.99" cy="592.1" rx="74.15" ry="128.44" transform="translate(-242.46 169.53) rotate(-30)"/><ellipse class="cls-44" cx="399.99" cy="592.1" rx="51.72" ry="89.59" transform="translate(-242.46 169.52) rotate(-30)"/><path class="cls-44" d="M437.46,613.73c0,23.9-16.77,33.59-37.47,21.64s-37.47-41-37.47-64.91,16.77-33.58,37.47-21.63S437.46,589.84,437.46,613.73Z" transform="translate(0 -109.8)"/><path class="cls-12" d="M414.73,600.61c0,9.4-6.6,13.21-14.74,8.51S385.25,593,385.25,583.59s6.6-13.21,14.74-8.51S414.73,591.21,414.73,600.61Z" transform="translate(0 -109.8)"/><path class="cls-45" d="M626,823.78V379.36c0,31-20.46,61.95-61.4,85.58-81.87,47.27-214.6,47.27-296.47,0-40.93-23.63-61.4-54.61-61.4-85.58V823.79h0c0,31,20.47,62,61.4,85.58,81.87,47.27,214.6,47.27,296.47,0C605.51,885.74,626,854.76,626,823.78Z" transform="translate(0 -109.8)"/><path class="cls-46" d="M626,823.78V379.36c0,31-20.46,61.95-61.4,85.58-81.87,47.27-214.6,47.27-296.47,0-40.93-23.63-61.4-54.61-61.4-85.58V823.79h0c0,31,20.47,62,61.4,85.58,81.87,47.27,214.6,47.27,296.47,0C605.51,885.74,626,854.76,626,823.78Z" transform="translate(0 -109.8)"/><ellipse class="cls-47" cx="416.34" cy="269.56" rx="209.64" ry="121.03"/><path class="cls-30" d="M238.09,632.14h0a28.59,28.59,0,0,1-14.29-24.75V479a5.51,5.51,0,0,1,8.26-4.77h0a29.33,29.33,0,0,1,14.66,25.39V627.16A5.75,5.75,0,0,1,238.09,632.14Z" transform="translate(0 -109.8)"/><path class="cls-30" d="M238.09,718.85h0A28.58,28.58,0,0,1,223.8,694.1V666.73a5.51,5.51,0,0,1,8.26-4.77h0a29.31,29.31,0,0,1,14.66,25.39v26.52A5.75,5.75,0,0,1,238.09,718.85Z" transform="translate(0 -109.8)"/><path class="cls-48" d="M1055.82,1354.39s-34.6,36.81-36.85,73.41l6.74,14.4,13.93-10.16s9.89-48.09,27.86-62.47Z" transform="translate(0 -109.8)"/><path class="cls-49" d="M1137,1785.58s2.39,22.77-8.76,21.59c-13-1.38-53.18-28.44-44.23-37s42.51,6.9,42.51,6.9Z" transform="translate(0 -109.8)"/><path class="cls-49" d="M1065.57,1819.29s2.39,22.77-8.75,21.58c-13-1.37-53.19-28.44-44.23-37s42.5,6.91,42.5,6.91Z" transform="translate(0 -109.8)"/><rect class="cls-50" x="1075.76" y="1141.76" width="23.86" height="33.69"/><path class="cls-48" d="M1050.35,1433.22s-38.38,87.6-9.55,388.25a4.83,4.83,0,0,0,2.37,3.73c5,2.9,17.79,8,24.36-8.93a5,5,0,0,0,.32-1.43l25-314.91c.2-5.07,2.85-5.3,3.36-.25l15.34,287.93a5.48,5.48,0,0,0,3.53,4.83c6.72,2.52,21.44,5.45,24.19-15.71,0,0,26.07-311.47-4.38-353.7Z" transform="translate(0 -109.8)"/><path class="cls-49" d="M1134.89,1413.39a15.89,15.89,0,0,1-2.54,3.57c-8.74,8.94-32.28,25.06-79.19,8.29a8.49,8.49,0,0,1-2.81-1.67v9.64a8.49,8.49,0,0,0,2.81,1.67c46.91,16.78,70.45.65,79.19-8.29a15.67,15.67,0,0,0,2.54-3.57Z" transform="translate(0 -109.8)"/><path class="cls-12" d="M1230.27,1127.72s0-20.39,2.8-20.83c2-.31,1.88,6.47,1.88,6.47s2.28-15.15,5.57-14.3c1.19.31-.31,9.59-.31,9.59s1.42-5.33,9.89,0c2.63,1.66,2,6.61-8.06,22.43Z" transform="translate(0 -109.8)"/><path class="cls-51" d="M1129.86,1264.45s71.4-6.18,99.6-138.34a16.13,16.13,0,0,1,13.67,4.81s-4.19,158.91-103,189.41Z" transform="translate(0 -109.8)"/><path class="cls-52" d="M1075.76,1273.84l23.85-5.43,37.63-4.9c9.22-1.22,15.84,12.11,16.51,26.39,1.25,27.13-17,119.43-17,119.43a15.74,15.74,0,0,1-4.38,10c-8.68,8.92-32.22,25.19-79.26,8.37a8.58,8.58,0,0,1-5.6-6.82L1030,1311.68a15,15,0,0,1,6.22-14.7Z" transform="translate(0 -109.8)"/><path class="cls-12" d="M1046.07,1209.2s2.89,32.59,16.37,49.29,39.57-10.87,43.45-18.9,10.19-58.43-30.29-58.43C1049.35,1181.16,1044.73,1197.48,1046.07,1209.2Z" transform="translate(0 -109.8)"/><path class="cls-48" d="M1085.07,1229.49s-13.6-9.62-18.65-26c0,0-3-1.79-19.55,12.11,0,0-18.69,0-10-19.76s44.6-44.62,61.88-24.92c0,0,32.91-5.48,26.54,37.14-8.4,56.15-34.7,46.91-41.27,34.07C1077.57,1229.51,1085.07,1229.49,1085.07,1229.49Z" transform="translate(0 -109.8)"/><path class="cls-12" d="M1076.58,1222.9s5.45-10.73,10-4.33-.93,19.34-10.75,21Z" transform="translate(0 -109.8)"/><polygon class="cls-48" points="927.74 1154.33 978.42 1204.8 1029.25 1174.58 978.42 1122.56 927.74 1154.33"/><polyline class="cls-53" points="974.11 1181.31 974.11 1169.99 984.78 1169.99 984.78 1146.17"/><polyline class="cls-53" points="974.69 1152.78 984.18 1143.28 994.87 1153.97"/><path class="cls-12" d="M949.73,1286c-.19-.31,4-4.61,7.11-7.8a1.26,1.26,0,0,1,2.11,1.23l-2.12,7.45s10.77-3,4.73,14.77l-10.48,2.83Z" transform="translate(0 -109.8)"/><path class="cls-51" d="M962.5,1301.38s55.52,99.73,22.49,106-34.61-102.72-34.61-102.72S953.61,1300.07,962.5,1301.38Z" transform="translate(0 -109.8)"/><path class="cls-51" d="M1036.26,1297s-14.9,7.46-35.63,37c-28.13,40.07-41.09,64-14.94,72.83,6.61,2.23,52.28-45.67,52.28-45.67S1056.55,1321.41,1036.26,1297Z" transform="translate(0 -109.8)"/><path class="cls-51" d="M1070.93,1276.67l4.83-8.26s8.19-5,23.85-5.35l5.71,4.86S1104.1,1273.58,1070.93,1276.67Z" transform="translate(0 -109.8)"/><polygon class="cls-10" points="583.93 1068.25 403.54 1475.15 387.14 1465.4 387.14 1228.94 583.93 1068.25"/><polygon class="cls-10" points="600.33 1077.99 600.33 1361.53 403.54 1475.15 403.54 1238.69 600.33 1077.99"/><polygon class="cls-54" points="600.33 1077.99 600.33 1361.53 403.54 1475.15 403.54 1238.69 600.33 1077.99"/><polygon class="cls-10" points="900.82 1250.93 720.43 1657.83 704.03 1648.08 704.03 1411.62 900.82 1250.93"/><polygon class="cls-10" points="917.22 1260.67 917.22 1544.21 720.43 1657.83 720.43 1421.37 917.22 1260.67"/><polygon class="cls-55" points="917.22 1260.67 917.22 1544.21 720.43 1657.83 720.43 1421.37 917.22 1260.67"/><polygon class="cls-10" points="720.43 1437.2 387.14 1244.78 917.22 1260.67 917.22 1276.51 720.43 1437.2"/><polygon class="cls-56" points="720.43 1437.2 387.14 1244.78 917.22 1260.67 917.22 1276.51 720.43 1437.2"/><polygon class="cls-12" points="720.43 1421.37 387.14 1228.94 583.93 1068.25 917.22 1260.67 720.43 1421.37"/><polygon class="cls-48" points="715.9 1394.91 425.93 1227.37 588.46 1094.65 878.44 1262.19 715.9 1394.91"/><path class="cls-57" d="M642.6,1358l-110.53-63.86a4.2,4.2,0,0,1-.55-6.9l58.26-47.58a9.65,9.65,0,0,1,10.94-.88l109,63a5.43,5.43,0,0,1,.71,8.9l-56.89,46.46A9.67,9.67,0,0,1,642.6,1358Z" transform="translate(0 -109.8)"/><path class="cls-58" d="M593,1397.61l-110.53-63.86a4.22,4.22,0,0,1-.56-6.91l28.82-23a9.67,9.67,0,0,1,10.94-.89l109,63a5.42,5.42,0,0,1,.72,8.9L604,1396.72A9.67,9.67,0,0,1,593,1397.61Z" transform="translate(0 -109.8)"/><path class="cls-59" d="M648.93,1431.06l-36-20.62a4.21,4.21,0,0,1-.56-6.91l28.81-23a9.67,9.67,0,0,1,11-.88l34.5,19.74a5.42,5.42,0,0,1,.72,8.9l-27.45,21.88A9.67,9.67,0,0,1,648.93,1431.06Z" transform="translate(0 -109.8)"/><path class="cls-60" d="M705.35,1463l-38.44-22.74a4.21,4.21,0,0,1-.56-6.91l28.82-23a9.65,9.65,0,0,1,10.94-.88L743,1431.3a5.42,5.42,0,0,1,.72,8.9l-27.45,21.88A9.67,9.67,0,0,1,705.35,1463Z" transform="translate(0 -109.8)"/><polygon class="cls-10" points="720.43 1437.2 720.43 1421.37 387.14 1228.94 387.14 1244.78 720.43 1437.2"/><path class="cls-61" d="M553.79,1290.69c.26-.57,53.63-4.26,53.63-4.26L617.75,1305H682l-13.92-6.66" transform="translate(0 -109.8)"/><line class="cls-61" x1="682.02" y1="1195.24" x2="682.02" y2="1206.29"/><ellipse class="cls-43" cx="741.7" cy="1217.33" rx="6.7" ry="3.87"/><ellipse class="cls-62" cx="761.06" cy="1228.38" rx="6.7" ry="3.87"/><path class="cls-43" d="M785.17,1352a10.49,10.49,0,0,1-9.48,0c-2.61-1.51-2.61-4,0-5.47a10.49,10.49,0,0,1,9.48,0C787.78,1348,787.78,1350.45,785.17,1352Z" transform="translate(0 -109.8)"/><path class="cls-43" d="M804.53,1363a10.46,10.46,0,0,1-9.47,0c-2.62-1.51-2.62-4,0-5.47a10.46,10.46,0,0,1,9.47,0C807.15,1359.05,807.15,1361.5,804.53,1363Z" transform="translate(0 -109.8)"/><path class="cls-43" d="M823.9,1374.05a10.46,10.46,0,0,1-9.47,0c-2.62-1.51-2.62-4,0-5.47a10.46,10.46,0,0,1,9.47,0C826.51,1370.09,826.51,1372.54,823.9,1374.05Z" transform="translate(0 -109.8)"/><path class="cls-43" d="M730.5,1342a10.46,10.46,0,0,1-9.47,0c-2.62-1.51-2.62-4,0-5.47a10.46,10.46,0,0,1,9.47,0C733.12,1338,733.12,1340.46,730.5,1342Z" transform="translate(0 -109.8)"/><path class="cls-43" d="M749.87,1353a10.46,10.46,0,0,1-9.47,0c-2.62-1.51-2.62-4,0-5.47a10.46,10.46,0,0,1,9.47,0C752.48,1349.06,752.48,1351.51,749.87,1353Z" transform="translate(0 -109.8)"/><path class="cls-43" d="M769.23,1364.07a10.46,10.46,0,0,1-9.47,0c-2.61-1.51-2.61-4,0-5.47a10.46,10.46,0,0,1,9.47,0C771.85,1360.11,771.85,1362.56,769.23,1364.07Z" transform="translate(0 -109.8)"/><path class="cls-62" d="M788.6,1375.11a10.46,10.46,0,0,1-9.47,0c-2.62-1.51-2.62-4,0-5.47a10.46,10.46,0,0,1,9.47,0C791.22,1371.15,791.22,1373.6,788.6,1375.11Z" transform="translate(0 -109.8)"/><path class="cls-62" d="M808,1386.16a10.46,10.46,0,0,1-9.47,0c-2.62-1.51-2.62-4,0-5.47a10.46,10.46,0,0,1,9.47,0C810.58,1382.2,810.58,1384.65,808,1386.16Z" transform="translate(0 -109.8)"/><path class="cls-62" d="M714.57,1354.08a10.46,10.46,0,0,1-9.47,0c-2.62-1.51-2.62-4,0-5.47a10.46,10.46,0,0,1,9.47,0C717.18,1350.12,717.18,1352.57,714.57,1354.08Z" transform="translate(0 -109.8)"/><path class="cls-43" d="M733.94,1365.13a10.49,10.49,0,0,1-9.48,0c-2.61-1.51-2.61-4,0-5.47a10.49,10.49,0,0,1,9.48,0C736.55,1361.17,736.55,1363.62,733.94,1365.13Z" transform="translate(0 -109.8)"/><ellipse class="cls-62" cx="748.57" cy="1263.64" rx="6.7" ry="3.87"/><path class="cls-43" d="M772.67,1387.22a10.46,10.46,0,0,1-9.47,0c-2.62-1.51-2.62-4,0-5.47a10.46,10.46,0,0,1,9.47,0C775.28,1383.26,775.28,1385.71,772.67,1387.22Z" transform="translate(0 -109.8)"/><path class="cls-43" d="M792,1398.26a10.49,10.49,0,0,1-9.48,0c-2.61-1.51-2.61-4,0-5.46a10.49,10.49,0,0,1,9.48,0C794.65,1394.31,794.65,1396.75,792,1398.26Z" transform="translate(0 -109.8)"/><path class="cls-43" d="M698.64,1366.19a10.46,10.46,0,0,1-9.47,0c-2.62-1.51-2.62-4,0-5.47a10.46,10.46,0,0,1,9.47,0C701.25,1362.23,701.25,1364.68,698.64,1366.19Z" transform="translate(0 -109.8)"/><path class="cls-43" d="M718,1377.23a10.46,10.46,0,0,1-9.47,0c-2.61-1.51-2.61-4,0-5.47a10.46,10.46,0,0,1,9.47,0C720.62,1373.27,720.62,1375.72,718,1377.23Z" transform="translate(0 -109.8)"/><path class="cls-43" d="M737.37,1388.28a10.46,10.46,0,0,1-9.47,0c-2.62-1.51-2.62-4,0-5.47a10.46,10.46,0,0,1,9.47,0C740,1384.32,740,1386.77,737.37,1388.28Z" transform="translate(0 -109.8)"/><path class="cls-43" d="M756.74,1399.32a10.46,10.46,0,0,1-9.47,0c-2.62-1.51-2.62-4,0-5.46a10.46,10.46,0,0,1,9.47,0C759.35,1395.37,759.35,1397.81,756.74,1399.32Z" transform="translate(0 -109.8)"/><path class="cls-62" d="M776.1,1410.37a10.46,10.46,0,0,1-9.47,0c-2.61-1.51-2.61-4,0-5.47a10.46,10.46,0,0,1,9.47,0C778.72,1406.41,778.72,1408.86,776.1,1410.37Z" transform="translate(0 -109.8)"/><ellipse class="cls-62" cx="677.97" cy="1265.76" rx="6.7" ry="3.87"/><ellipse class="cls-43" cx="697.34" cy="1276.8" rx="6.7" ry="3.87"/><path class="cls-62" d="M721.44,1400.38a10.46,10.46,0,0,1-9.47,0c-2.62-1.51-2.62-4,0-5.46a10.46,10.46,0,0,1,9.47,0C724.05,1396.43,724.05,1398.87,721.44,1400.38Z" transform="translate(0 -109.8)"/><ellipse class="cls-43" cx="736.07" cy="1298.9" rx="6.7" ry="3.87"/><path class="cls-62" d="M760.17,1422.48a10.46,10.46,0,0,1-9.47,0c-2.61-1.51-2.61-4,0-5.47a10.46,10.46,0,0,1,9.47,0C762.79,1418.52,762.79,1421,760.17,1422.48Z" transform="translate(0 -109.8)"/><line class="cls-63" x1="515.03" y1="1204.93" x2="613.16" y2="1262.33"/><line class="cls-63" x1="507.86" y1="1210.63" x2="605.98" y2="1268.03"/><line class="cls-63" x1="500.68" y1="1216.34" x2="598.8" y2="1273.74"/><path class="cls-48" d="M464.63,1320.53s36.52,38.85,38.89,77.48l-7.11,15.21-14.71-10.74s-10.43-50.75-29.4-65.92Z" transform="translate(0 -109.8)"/><path class="cls-49" d="M378.92,1775.63s-2.52,24,9.24,22.79c13.69-1.46,56.13-30,46.68-39s-44.86,7.29-44.86,7.29Z" transform="translate(0 -109.8)"/><path class="cls-49" d="M454.33,1811.2s-2.52,24,9.24,22.79c13.7-1.45,56.14-30,46.69-39s-44.87,7.29-44.87,7.29Z" transform="translate(0 -109.8)"/><rect class="cls-12" x="418.4" y="1212.01" width="25.18" height="35.56" transform="translate(861.99 2349.77) rotate(180)"/><path class="cls-48" d="M470.4,1403.74s40.51,92.45,10.08,409.77a5.08,5.08,0,0,1-2.5,3.93c-5.33,3.07-18.77,8.5-25.72-9.42a5.6,5.6,0,0,1-.33-1.5l-26.39-332.38c-.21-5.35-3-5.59-3.54-.26l-16.2,303.89a5.76,5.76,0,0,1-3.72,5.1c-7.1,2.66-22.63,5.76-25.53-16.58,0,0-27.51-328.74,4.62-373.31Z" transform="translate(0 -109.8)"/><path class="cls-49" d="M381.17,1382.8a16.31,16.31,0,0,0,2.69,3.77c9.22,9.44,34.07,26.46,83.58,8.76a9.15,9.15,0,0,0,3-1.77v10.18a9.3,9.3,0,0,1-3,1.76c-49.51,17.7-74.36.68-83.58-8.75a16.31,16.31,0,0,1-2.69-3.77Z" transform="translate(0 -109.8)"/><path class="cls-52" d="M443.58,1235.52l-25.18-5.73-39.71-5.18c-9.72-1.28-16.72,12.79-17.42,27.86-1.32,28.63,17.89,126,17.89,126a16.6,16.6,0,0,0,4.62,10.5c9.16,9.42,34,26.58,83.66,8.83a9.06,9.06,0,0,0,5.91-7.2l18.49-115.19a15.89,15.89,0,0,0-6.57-15.52Z" transform="translate(0 -109.8)"/><path class="cls-12" d="M474.92,1167.29s-3.06,34.4-17.28,52-41.76-11.47-45.86-20-10.75-61.66,32-61.66C471.46,1137.7,476.33,1154.92,474.92,1167.29Z" transform="translate(0 -109.8)"/><path class="cls-48" d="M433.75,1188.71s14.36-10.16,19.69-27.47c0,0,3.15-1.88,20.63,12.78,0,0,19.73,0,10.56-20.84s-47.08-47.1-65.31-26.31c0,0-34.74-5.78-28,39.2,8.86,59.27,36.62,49.51,43.55,36C441.67,1188.73,433.75,1188.71,433.75,1188.71Z" transform="translate(0 -109.8)"/><path class="cls-12" d="M442.71,1181.75s-5.75-11.33-10.49-4.57,1,20.41,11.34,22.18Z" transform="translate(0 -109.8)"/><path class="cls-12" d="M650.83,1384.29c.36-.12,3.78,5.18,6.31,9.18a1.33,1.33,0,0,1-1.77,1.87l-7.15-4s.49,11.79-16.31,1.31l-.39-11.44Z" transform="translate(0 -109.8)"/><path class="cls-51" d="M635,1380.85s-104.75-59.52-111.66-24.72,108.09,37.47,108.09,37.47S636.33,1390.24,635,1380.85Z" transform="translate(0 -109.8)"/><path class="cls-51" d="M485.27,1259.94s15.73,7.88,37.61,39c29.69,42.3,43.36,67.55,15.77,76.87-7,2.36-55.19-48.21-55.19-48.21S463.86,1285.73,485.27,1259.94Z" transform="translate(0 -109.8)"/><path class="cls-51" d="M448.68,1238.5l-5.1-8.71s-8.64-5.29-25.18-5.65l-6,5.13S413.67,1235.25,448.68,1238.5Z" transform="translate(0 -109.8)"/><path class="cls-64" d="M1582,600.81c20.75,56.27,97.89,128.42,161.29,101.39,31.37-13.37,48.46-57.31,27.47-84.18-14.91-19.09-41.73-23.81-61-38.47-17.23-13.1-27.35-33.21-40.41-50.48s-32.39-33.06-53.9-30.66c-45.09,5-45.19,67.26-34.58,99.12C1581.21,598.62,1581.59,599.71,1582,600.81Z" transform="translate(0 -109.8)"/></g></g></svg>